<svg width="280" height="300" viewBox="0 0 280 300" fill="none" xmlns="http://www.w3.org/2000/svg">
<g filter="url(#filter0_b)">
<rect x="20" y="20" width="240" height="200" rx="28" fill="#212121" fill-opacity="0.85"/>
<rect x="40" y="45" width="140" height="12" rx="2" fill="white" fill-opacity="0.8"/>
<rect x="40" y="62" width="120" height="12" rx="2" fill="white" fill-opacity="0.8"/>
<rect x="40" y="90" width="200" height="8" rx="2" fill="white" fill-opacity="0.15"/>
<rect x="40" y="104" width="190" height="8" rx="2" fill="white" fill-opacity="0.15"/>
<rect x="40" y="118" width="200" height="8" rx="2" fill="white" fill-opacity="0.15"/>
<rect x="40" y="132" width="180" height="8" rx="2" fill="white" fill-opacity="0.15"/>
<rect x="40" y="146" width="195" height="8" rx="2" fill="white" fill-opacity="0.15"/>
<rect x="35" y="175" width="103" height="32" rx="16" fill="white" fill-opacity="0.15"/>
<text x="86.5" y="195" font-family="system-ui, -apple-system, sans-serif" font-size="13" font-weight="500" fill="white" fill-opacity="0.85" text-anchor="middle">Continue</text>
<rect x="142" y="175" width="105" height="32" rx="16" fill="#5EB0FF"/>
<text x="194.5" y="195" font-family="system-ui, -apple-system, sans-serif" font-size="13" font-weight="500" fill="white" text-anchor="middle">Don’t Allow</text>
</g>
<path d="M88 206C88 260 148 287 168 285" stroke="#C96DFF" stroke-width="10" stroke-linecap="round"/>
<path d="M106 212L84 204L74 223" stroke="#C96DFF" stroke-width="10" stroke-linecap="round" stroke-linejoin="round" fill="none"/>
<defs>
<filter id="filter0_b" x="-20" y="-20" width="320" height="300" filterUnits="userSpaceOnUse" color-interpolation-filters="sRGB">
<feFlood flood-opacity="0" result="BackgroundImageFix"/>
<feGaussianBlur in="BackgroundImageFix" stdDeviation="20"/>
<feComposite in2="SourceAlpha" operator="in" result="effect1_backgroundBlur"/>
<feBlend mode="normal" in="SourceGraphic" in2="effect1_backgroundBlur" result="shape"/>
</filter>
</defs>
</svg>
