<svg width="280" height="300" viewBox="0 0 280 300" fill="none" xmlns="http://www.w3.org/2000/svg">
<g filter="url(#filter0_b)">
<rect x="20" y="20" width="240" height="212" rx="28" fill="#212121" fill-opacity="0.85"/>
<rect x="40" y="37" width="44" height="44" rx="10" fill="#5EB0FF"/>
<rect x="71" y="68" width="22" height="22" rx="6" fill="#5EB0FF"/>
<rect x="40" y="104" width="200" height="12" rx="2" fill="white" fill-opacity="0.8"/>
<rect x="40" y="121" width="100" height="12" rx="2" fill="white" fill-opacity="0.8"/>
<rect x="40" y="144" width="200" height="8" rx="2" fill="white" fill-opacity="0.15"/>
<rect x="40" y="158" width="190" height="8" rx="2" fill="white" fill-opacity="0.15"/>
<rect x="35" y="187" width="103" height="32" rx="16" fill="white" fill-opacity="0.15"/>
<text x="86.5" y="207" font-family="system-ui, -apple-system, sans-serif" font-size="13" font-weight="500" fill="white" fill-opacity="0.85" text-anchor="middle">Allow</text>
<rect x="142" y="187" width="105" height="32" rx="16" fill="#5EB0FF"/>
<text x="194.5" y="207" font-family="system-ui, -apple-system, sans-serif" font-size="13" font-weight="500" fill="white" text-anchor="middle">Don’t Allow</text>
</g>
<path d="M88 218C88 272 148 287 168 285" stroke="#C96DFF" stroke-width="10" stroke-linecap="round"/>
<path d="M106 224L84 216L74 235" stroke="#C96DFF" stroke-width="10" stroke-linecap="round" stroke-linejoin="round" fill="none"/>
<defs>
<filter id="filter0_b" x="-20" y="-20" width="320" height="300" filterUnits="userSpaceOnUse" color-interpolation-filters="sRGB">
<feFlood flood-opacity="0" result="BackgroundImageFix"/>
<feGaussianBlur in="BackgroundImageFix" stdDeviation="20"/>
<feComposite in2="SourceAlpha" operator="in" result="effect1_backgroundBlur"/>
<feBlend mode="normal" in="SourceGraphic" in2="effect1_backgroundBlur" result="shape"/>
</filter>
</defs>
</svg>
