<svg width="280" height="263" viewBox="0 0 280 263" fill="none" xmlns="http://www.w3.org/2000/svg">
<g filter="url(#filter0_b_13_35)">
<g clip-path="url(#clip0_13_35)">
<rect width="280" height="180" rx="16" fill="#212121" fill-opacity="0.72"/>
<rect x="44" y="35" width="192" height="14" fill="white" fill-opacity="0.73"/>
<rect x="62" y="58" width="156" height="14" fill="white" fill-opacity="0.73"/>
<rect x="32" y="81" width="216" height="8" fill="white" fill-opacity="0.18"/>
<rect x="78" y="98" width="124" height="8" fill="white" fill-opacity="0.18"/>
<g clip-path="url(#clip1_13_35)">
<mask id="path-6-inside-1_13_35" fill="white">
<path d="M0 141H280V180H0V141Z"/>
</mask>
<mask id="path-8-inside-2_13_35" fill="white">
<path d="M0 141H140V180H0V141Z"/>
</mask>
<path d="M139 141V180H141V141H139Z" fill="white" fill-opacity="0.08" mask="url(#path-8-inside-2_13_35)"/>
<path d="M53.6506 166H52.358L56.0966 155.818H57.3693L61.108 166H59.8153L56.7727 157.429H56.6932L53.6506 166ZM54.1278 162.023H59.3381V163.116H54.1278V162.023ZM63.7081 155.818V166H62.5348V155.818H63.7081ZM67.0304 155.818V166H65.8571V155.818H67.0304ZM72.2816 166.159C71.5922 166.159 70.9873 165.995 70.467 165.667C69.9499 165.339 69.5456 164.88 69.2539 164.29C68.9656 163.7 68.8214 163.01 68.8214 162.222C68.8214 161.426 68.9656 160.732 69.2539 160.138C69.5456 159.545 69.9499 159.085 70.467 158.756C70.9873 158.428 71.5922 158.264 72.2816 158.264C72.971 158.264 73.5742 158.428 74.0913 158.756C74.6116 159.085 75.016 159.545 75.3043 160.138C75.596 160.732 75.7418 161.426 75.7418 162.222C75.7418 163.01 75.596 163.7 75.3043 164.29C75.016 164.88 74.6116 165.339 74.0913 165.667C73.5742 165.995 72.971 166.159 72.2816 166.159ZM72.2816 165.105C72.8053 165.105 73.2362 164.971 73.5742 164.702C73.9123 164.434 74.1625 164.081 74.3249 163.643C74.4873 163.206 74.5685 162.732 74.5685 162.222C74.5685 161.711 74.4873 161.236 74.3249 160.795C74.1625 160.354 73.9123 159.998 73.5742 159.726C73.2362 159.454 72.8053 159.318 72.2816 159.318C71.7579 159.318 71.3271 159.454 70.989 159.726C70.6509 159.998 70.4007 160.354 70.2383 160.795C70.0759 161.236 69.9947 161.711 69.9947 162.222C69.9947 162.732 70.0759 163.206 70.2383 163.643C70.4007 164.081 70.6509 164.434 70.989 164.702C71.3271 164.971 71.7579 165.105 72.2816 165.105ZM79.0032 166L76.6765 158.364H77.9094L79.56 164.21H79.6396L81.2702 158.364H82.5231L84.1339 164.19H84.2134L85.864 158.364H87.0969L84.7702 166H83.6168L81.9464 160.134H81.8271L80.1566 166H79.0032Z" fill="#007BFF"/>
<path d="M174.994 166H171.385V155.818H175.024C176.048 155.818 176.93 156.022 177.669 156.43C178.408 156.834 178.977 157.416 179.374 158.175C179.775 158.934 179.976 159.842 179.976 160.899C179.976 161.96 179.775 162.871 179.374 163.634C178.977 164.396 178.405 164.981 177.659 165.388C176.917 165.796 176.028 166 174.994 166ZM173.538 164.156H174.905C175.541 164.156 176.076 164.043 176.511 163.817C176.948 163.589 177.276 163.236 177.495 162.759C177.717 162.278 177.828 161.658 177.828 160.899C177.828 160.147 177.717 159.532 177.495 159.055C177.276 158.577 176.95 158.226 176.516 158.001C176.081 157.775 175.546 157.663 174.91 157.663H173.538V164.156ZM184.981 166.149C184.209 166.149 183.541 165.985 182.977 165.657C182.417 165.326 181.985 164.865 181.68 164.275C181.375 163.682 181.222 162.994 181.222 162.212C181.222 161.423 181.375 160.733 181.68 160.143C181.985 159.55 182.417 159.089 182.977 158.761C183.541 158.43 184.209 158.264 184.981 158.264C185.753 158.264 186.419 158.43 186.98 158.761C187.543 159.089 187.977 159.55 188.282 160.143C188.587 160.733 188.74 161.423 188.74 162.212C188.74 162.994 188.587 163.682 188.282 164.275C187.977 164.865 187.543 165.326 186.98 165.657C186.419 165.985 185.753 166.149 184.981 166.149ZM184.991 164.509C185.342 164.509 185.636 164.409 185.871 164.21C186.106 164.008 186.284 163.733 186.403 163.385C186.526 163.037 186.587 162.641 186.587 162.197C186.587 161.753 186.526 161.357 186.403 161.009C186.284 160.661 186.106 160.385 185.871 160.183C185.636 159.981 185.342 159.88 184.991 159.88C184.636 159.88 184.338 159.981 184.096 160.183C183.857 160.385 183.677 160.661 183.554 161.009C183.435 161.357 183.375 161.753 183.375 162.197C183.375 162.641 183.435 163.037 183.554 163.385C183.677 163.733 183.857 164.008 184.096 164.21C184.338 164.409 184.636 164.509 184.991 164.509ZM192.235 161.585V166H190.117V158.364H192.135V159.711H192.225C192.394 159.267 192.677 158.915 193.075 158.657C193.472 158.395 193.955 158.264 194.521 158.264C195.052 158.264 195.514 158.38 195.909 158.612C196.303 158.844 196.61 159.176 196.828 159.607C197.047 160.034 197.156 160.545 197.156 161.138V166H195.039V161.516C195.042 161.048 194.923 160.684 194.681 160.422C194.439 160.157 194.106 160.024 193.681 160.024C193.396 160.024 193.144 160.085 192.926 160.208C192.71 160.331 192.541 160.51 192.419 160.745C192.299 160.977 192.238 161.257 192.235 161.585ZM200.6 155.818V156.892C200.6 157.197 200.541 157.509 200.422 157.827C200.306 158.142 200.15 158.44 199.954 158.722C199.759 159 199.545 159.237 199.313 159.433L198.378 158.881C198.544 158.619 198.69 158.329 198.816 158.011C198.945 157.692 199.01 157.323 199.01 156.902V155.818H200.6ZM206.333 158.364V159.955H201.734V158.364H206.333ZM202.778 156.534H204.896V163.653C204.896 163.849 204.926 164.001 204.985 164.111C205.045 164.217 205.128 164.291 205.234 164.335C205.343 164.378 205.469 164.399 205.612 164.399C205.711 164.399 205.811 164.391 205.91 164.374C206.01 164.354 206.086 164.339 206.139 164.33L206.472 165.906C206.366 165.939 206.217 165.977 206.025 166.02C205.832 166.066 205.599 166.094 205.324 166.104C204.813 166.124 204.366 166.056 203.981 165.901C203.6 165.745 203.303 165.503 203.091 165.175C202.879 164.847 202.775 164.432 202.778 163.932V156.534ZM212.747 166H210.441L213.955 155.818H216.73L220.24 166H217.933L215.382 158.145H215.303L212.747 166ZM212.603 161.998H218.052V163.678H212.603V161.998ZM223.543 155.818V166H221.425V155.818H223.543ZM227.358 155.818V166H225.24V155.818H227.358ZM232.504 166.149C231.732 166.149 231.064 165.985 230.501 165.657C229.941 165.326 229.508 164.865 229.203 164.275C228.898 163.682 228.746 162.994 228.746 162.212C228.746 161.423 228.898 160.733 229.203 160.143C229.508 159.55 229.941 159.089 230.501 158.761C231.064 158.43 231.732 158.264 232.504 158.264C233.277 158.264 233.943 158.43 234.503 158.761C235.066 159.089 235.501 159.55 235.806 160.143C236.11 160.733 236.263 161.423 236.263 162.212C236.263 162.994 236.11 163.682 235.806 164.275C235.501 164.865 235.066 165.326 234.503 165.657C233.943 165.985 233.277 166.149 232.504 166.149ZM232.514 164.509C232.866 164.509 233.159 164.409 233.394 164.21C233.63 164.008 233.807 163.733 233.926 163.385C234.049 163.037 234.11 162.641 234.11 162.197C234.11 161.753 234.049 161.357 233.926 161.009C233.807 160.661 233.63 160.385 233.394 160.183C233.159 159.981 232.866 159.88 232.514 159.88C232.16 159.88 231.861 159.981 231.619 160.183C231.381 160.385 231.2 160.661 231.078 161.009C230.958 161.357 230.899 161.753 230.899 162.197C230.899 162.641 230.958 163.037 231.078 163.385C231.2 163.733 231.381 164.008 231.619 164.21C231.861 164.409 232.16 164.509 232.514 164.509ZM238.955 166L236.877 158.364H239.02L240.203 163.494H240.273L241.506 158.364H243.608L244.861 163.464H244.926L246.089 158.364H248.227L246.154 166H243.912L242.599 161.197H242.505L241.192 166H238.955Z" fill="#007BFF"/>
</g>
<path d="M0 142H280V140H0V142Z" fill="white" fill-opacity="0.08" mask="url(#path-6-inside-1_13_35)"/>
</g>
</g>
<path d="M84 212.188L91.6047 177L127.77 184.816" stroke="#C96DFF" stroke-width="12"/>
<path d="M96 184C132.5 247.5 183 256.5 212.5 251" stroke="#C96DFF" stroke-width="12"/>
<defs>
<filter id="filter0_b_13_35" x="-40" y="-40" width="360" height="260" filterUnits="userSpaceOnUse" color-interpolation-filters="sRGB">
<feFlood flood-opacity="0" result="BackgroundImageFix"/>
<feGaussianBlur in="BackgroundImageFix" stdDeviation="20"/>
<feComposite in2="SourceAlpha" operator="in" result="effect1_backgroundBlur_13_35"/>
<feBlend mode="normal" in="SourceGraphic" in2="effect1_backgroundBlur_13_35" result="shape"/>
</filter>
<clipPath id="clip0_13_35">
<rect width="280" height="180" rx="16" fill="white"/>
</clipPath>
<clipPath id="clip1_13_35">
<path d="M0 141H280V180H0V141Z" fill="white"/>
</clipPath>
</defs>
</svg>
