<svg width="280" height="294" viewBox="0 0 280 294" fill="none" xmlns="http://www.w3.org/2000/svg">
<g filter="url(#filter0_b_13_12)">
<g clip-path="url(#clip0_13_12)">
<rect width="280" height="212" rx="16" fill="white" fill-opacity="0.72"/>
<rect x="44" y="34" width="192" height="14" fill="black" fill-opacity="0.73"/>
<rect x="62" y="57" width="156" height="14" fill="black" fill-opacity="0.73"/>
<rect x="32" y="80" width="216" height="8" fill="black" fill-opacity="0.18"/>
<rect x="36" y="97" width="208" height="8" fill="black" fill-opacity="0.18"/>
<rect x="40" y="114" width="200" height="8" fill="black" fill-opacity="0.18"/>
<rect x="78" y="131" width="124" height="8" fill="black" fill-opacity="0.18"/>
<g clip-path="url(#clip1_13_12)">
<mask id="path-8-inside-1_13_12" fill="white">
<path d="M0 173H280V212H0V173Z"/>
</mask>
<mask id="path-10-inside-2_13_12" fill="white">
<path d="M0 173H140V212H0V173Z"/>
</mask>
<path d="M139 173V212H141V173H139Z" fill="black" fill-opacity="0.08" mask="url(#path-10-inside-2_13_12)"/>
<path d="M49.4261 191H48.1932C48.1203 190.645 47.9927 190.334 47.8104 190.065C47.6314 189.797 47.4126 189.571 47.1541 189.389C46.8989 189.204 46.6155 189.064 46.304 188.972C45.9924 188.879 45.6676 188.832 45.3295 188.832C44.7131 188.832 44.1546 188.988 43.6541 189.3C43.157 189.611 42.7609 190.07 42.4659 190.677C42.1742 191.283 42.0284 192.027 42.0284 192.909C42.0284 193.791 42.1742 194.535 42.4659 195.141C42.7609 195.748 43.157 196.207 43.6541 196.518C44.1546 196.83 44.7131 196.986 45.3295 196.986C45.6676 196.986 45.9924 196.939 46.304 196.847C46.6155 196.754 46.8989 196.616 47.1541 196.434C47.4126 196.248 47.6314 196.021 47.8104 195.753C47.9927 195.481 48.1203 195.17 48.1932 194.818H49.4261C49.3333 195.339 49.1643 195.804 48.919 196.215C48.6738 196.626 48.3688 196.976 48.0043 197.264C47.6397 197.549 47.2304 197.766 46.7763 197.915C46.3255 198.065 45.8433 198.139 45.3295 198.139C44.4612 198.139 43.6889 197.927 43.0128 197.503C42.3366 197.079 41.8047 196.475 41.4169 195.693C41.0291 194.911 40.8352 193.983 40.8352 192.909C40.8352 191.835 41.0291 190.907 41.4169 190.125C41.8047 189.343 42.3366 188.74 43.0128 188.315C43.6889 187.891 44.4612 187.679 45.3295 187.679C45.8433 187.679 46.3255 187.754 46.7763 187.903C47.2304 188.052 47.6397 188.271 48.0043 188.559C48.3688 188.844 48.6738 189.192 48.919 189.603C49.1643 190.011 49.3333 190.476 49.4261 191ZM54.3617 198.159C53.6723 198.159 53.0674 197.995 52.5471 197.667C52.03 197.339 51.6257 196.88 51.334 196.29C51.0456 195.7 50.9015 195.01 50.9015 194.222C50.9015 193.426 51.0456 192.732 51.334 192.138C51.6257 191.545 52.03 191.085 52.5471 190.756C53.0674 190.428 53.6723 190.264 54.3617 190.264C55.0511 190.264 55.6543 190.428 56.1713 190.756C56.6917 191.085 57.0961 191.545 57.3844 192.138C57.6761 192.732 57.8219 193.426 57.8219 194.222C57.8219 195.01 57.6761 195.7 57.3844 196.29C57.0961 196.88 56.6917 197.339 56.1713 197.667C55.6543 197.995 55.0511 198.159 54.3617 198.159ZM54.3617 197.105C54.8854 197.105 55.3162 196.971 55.6543 196.702C55.9924 196.434 56.2426 196.081 56.405 195.643C56.5674 195.206 56.6486 194.732 56.6486 194.222C56.6486 193.711 56.5674 193.236 56.405 192.795C56.2426 192.354 55.9924 191.998 55.6543 191.726C55.3162 191.454 54.8854 191.318 54.3617 191.318C53.838 191.318 53.4071 191.454 53.0691 191.726C52.731 191.998 52.4808 192.354 52.3184 192.795C52.156 193.236 52.0748 193.711 52.0748 194.222C52.0748 194.732 52.156 195.206 52.3184 195.643C52.4808 196.081 52.731 196.434 53.0691 196.702C53.4071 196.971 53.838 197.105 54.3617 197.105ZM60.7862 193.406V198H59.6129V190.364H60.7464V191.557H60.8459C61.0249 191.169 61.2966 190.857 61.6612 190.622C62.0258 190.384 62.4964 190.264 63.0732 190.264C63.5902 190.264 64.0426 190.37 64.4304 190.582C64.8182 190.791 65.1198 191.109 65.3352 191.537C65.5507 191.961 65.6584 192.498 65.6584 193.148V198H64.4851V193.227C64.4851 192.627 64.3293 192.16 64.0178 191.825C63.7062 191.487 63.2786 191.318 62.7351 191.318C62.3606 191.318 62.0258 191.399 61.7308 191.562C61.4392 191.724 61.2088 191.961 61.0398 192.273C60.8707 192.584 60.7862 192.962 60.7862 193.406ZM71.1234 190.364V191.358H67.166V190.364H71.1234ZM68.3194 188.534H69.4927V195.812C69.4927 196.144 69.5408 196.393 69.6369 196.558C69.7363 196.721 69.8623 196.83 70.0147 196.886C70.1705 196.939 70.3346 196.966 70.5069 196.966C70.6362 196.966 70.7422 196.959 70.8251 196.946C70.908 196.929 70.9743 196.916 71.024 196.906L71.2626 197.96C71.1831 197.99 71.072 198.02 70.9295 198.05C70.787 198.083 70.6064 198.099 70.3876 198.099C70.0562 198.099 69.7314 198.028 69.4132 197.886C69.0983 197.743 68.8365 197.526 68.6277 197.234C68.4222 196.943 68.3194 196.575 68.3194 196.131V188.534ZM72.8883 198V190.364H74.0616V198H72.8883ZM73.4849 189.091C73.2562 189.091 73.059 189.013 72.8933 188.857C72.7309 188.701 72.6497 188.514 72.6497 188.295C72.6497 188.077 72.7309 187.889 72.8933 187.734C73.059 187.578 73.2562 187.5 73.4849 187.5C73.7136 187.5 73.9092 187.578 74.0716 187.734C74.2373 187.889 74.3201 188.077 74.3201 188.295C74.3201 188.514 74.2373 188.701 74.0716 188.857C73.9092 189.013 73.7136 189.091 73.4849 189.091ZM77.3839 193.406V198H76.2106V190.364H77.3441V191.557H77.4435C77.6225 191.169 77.8943 190.857 78.2589 190.622C78.6235 190.384 79.0941 190.264 79.6708 190.264C80.1879 190.264 80.6403 190.37 81.0281 190.582C81.4158 190.791 81.7174 191.109 81.9329 191.537C82.1483 191.961 82.256 192.498 82.256 193.148V198H81.0827V193.227C81.0827 192.627 80.927 192.16 80.6154 191.825C80.3039 191.487 79.8763 191.318 79.3327 191.318C78.9582 191.318 78.6235 191.399 78.3285 191.562C78.0368 191.724 77.8065 191.961 77.6374 192.273C77.4684 192.584 77.3839 192.962 77.3839 193.406ZM89.2125 194.878V190.364H90.3858V198H89.2125V196.707H89.133C88.954 197.095 88.6756 197.425 88.2978 197.697C87.9199 197.965 87.4426 198.099 86.8659 198.099C86.3887 198.099 85.9644 197.995 85.5932 197.786C85.222 197.574 84.9303 197.256 84.7182 196.832C84.5061 196.404 84.4 195.866 84.4 195.216V190.364H85.5733V195.136C85.5733 195.693 85.7291 196.137 86.0407 196.469C86.3555 196.8 86.7566 196.966 87.2438 196.966C87.5355 196.966 87.8321 196.891 88.1337 196.742C88.4386 196.593 88.6938 196.364 88.8993 196.056C89.1081 195.748 89.2125 195.355 89.2125 194.878ZM95.7365 198.159C95.0007 198.159 94.366 197.997 93.8324 197.672C93.3021 197.344 92.8928 196.886 92.6044 196.3C92.3194 195.71 92.1768 195.024 92.1768 194.241C92.1768 193.459 92.3194 192.77 92.6044 192.173C92.8928 191.573 93.2938 191.106 93.8075 190.771C94.3246 190.433 94.9278 190.264 95.6172 190.264C96.0149 190.264 96.4077 190.33 96.7955 190.463C97.1832 190.596 97.5362 190.811 97.8544 191.109C98.1726 191.404 98.4261 191.795 98.6151 192.283C98.804 192.77 98.8984 193.37 98.8984 194.082V194.58H93.0121V193.565H97.7053C97.7053 193.134 97.6191 192.75 97.4467 192.412C97.2777 192.074 97.0357 191.807 96.7209 191.612C96.4093 191.416 96.0414 191.318 95.6172 191.318C95.1499 191.318 94.7455 191.434 94.4041 191.666C94.0661 191.895 93.8059 192.193 93.6236 192.561C93.4413 192.929 93.3501 193.323 93.3501 193.744V194.42C93.3501 194.997 93.4496 195.486 93.6484 195.887C93.8506 196.285 94.1307 196.588 94.4886 196.797C94.8466 197.002 95.2625 197.105 95.7365 197.105C96.0447 197.105 96.3232 197.062 96.5717 196.976C96.8236 196.886 97.0407 196.754 97.223 196.578C97.4053 196.399 97.5462 196.177 97.6456 195.912L98.7791 196.23C98.6598 196.615 98.4593 196.953 98.1776 197.244C97.8958 197.533 97.5478 197.758 97.1335 197.92C96.7192 198.08 96.2536 198.159 95.7365 198.159Z" fill="#007BFF"/>
<path d="M174.994 198H171.385V187.818H175.024C176.048 187.818 176.93 188.022 177.669 188.43C178.408 188.834 178.977 189.416 179.374 190.175C179.775 190.934 179.976 191.842 179.976 192.899C179.976 193.96 179.775 194.871 179.374 195.634C178.977 196.396 178.405 196.981 177.659 197.388C176.917 197.796 176.028 198 174.994 198ZM173.538 196.156H174.905C175.541 196.156 176.076 196.043 176.511 195.817C176.948 195.589 177.276 195.236 177.495 194.759C177.717 194.278 177.828 193.658 177.828 192.899C177.828 192.147 177.717 191.532 177.495 191.055C177.276 190.577 176.95 190.226 176.516 190.001C176.081 189.775 175.546 189.663 174.91 189.663H173.538V196.156ZM184.981 198.149C184.209 198.149 183.541 197.985 182.977 197.657C182.417 197.326 181.985 196.865 181.68 196.275C181.375 195.682 181.222 194.994 181.222 194.212C181.222 193.423 181.375 192.733 181.68 192.143C181.985 191.55 182.417 191.089 182.977 190.761C183.541 190.43 184.209 190.264 184.981 190.264C185.753 190.264 186.419 190.43 186.98 190.761C187.543 191.089 187.977 191.55 188.282 192.143C188.587 192.733 188.74 193.423 188.74 194.212C188.74 194.994 188.587 195.682 188.282 196.275C187.977 196.865 187.543 197.326 186.98 197.657C186.419 197.985 185.753 198.149 184.981 198.149ZM184.991 196.509C185.342 196.509 185.636 196.409 185.871 196.21C186.106 196.008 186.284 195.733 186.403 195.385C186.526 195.037 186.587 194.641 186.587 194.197C186.587 193.753 186.526 193.357 186.403 193.009C186.284 192.661 186.106 192.385 185.871 192.183C185.636 191.981 185.342 191.88 184.991 191.88C184.636 191.88 184.338 191.981 184.096 192.183C183.857 192.385 183.677 192.661 183.554 193.009C183.435 193.357 183.375 193.753 183.375 194.197C183.375 194.641 183.435 195.037 183.554 195.385C183.677 195.733 183.857 196.008 184.096 196.21C184.338 196.409 184.636 196.509 184.991 196.509ZM192.235 193.585V198H190.117V190.364H192.135V191.711H192.225C192.394 191.267 192.677 190.915 193.075 190.657C193.472 190.395 193.955 190.264 194.521 190.264C195.052 190.264 195.514 190.38 195.909 190.612C196.303 190.844 196.61 191.176 196.828 191.607C197.047 192.034 197.156 192.545 197.156 193.138V198H195.039V193.516C195.042 193.048 194.923 192.684 194.681 192.422C194.439 192.157 194.106 192.024 193.681 192.024C193.396 192.024 193.144 192.085 192.926 192.208C192.71 192.331 192.541 192.51 192.419 192.745C192.299 192.977 192.238 193.257 192.235 193.585ZM200.6 187.818V188.892C200.6 189.197 200.541 189.509 200.422 189.827C200.306 190.142 200.15 190.44 199.954 190.722C199.759 191 199.545 191.237 199.313 191.433L198.378 190.881C198.544 190.619 198.69 190.329 198.816 190.011C198.945 189.692 199.01 189.323 199.01 188.902V187.818H200.6ZM206.333 190.364V191.955H201.734V190.364H206.333ZM202.778 188.534H204.896V195.653C204.896 195.849 204.926 196.001 204.985 196.111C205.045 196.217 205.128 196.291 205.234 196.335C205.343 196.378 205.469 196.399 205.612 196.399C205.711 196.399 205.811 196.391 205.91 196.374C206.01 196.354 206.086 196.339 206.139 196.33L206.472 197.906C206.366 197.939 206.217 197.977 206.025 198.02C205.832 198.066 205.599 198.094 205.324 198.104C204.813 198.124 204.366 198.056 203.981 197.901C203.6 197.745 203.303 197.503 203.091 197.175C202.879 196.847 202.775 196.432 202.778 195.932V188.534ZM212.747 198H210.441L213.955 187.818H216.73L220.24 198H217.933L215.382 190.145H215.303L212.747 198ZM212.603 193.998H218.052V195.678H212.603V193.998ZM223.543 187.818V198H221.425V187.818H223.543ZM227.358 187.818V198H225.24V187.818H227.358ZM232.504 198.149C231.732 198.149 231.064 197.985 230.501 197.657C229.941 197.326 229.508 196.865 229.203 196.275C228.898 195.682 228.746 194.994 228.746 194.212C228.746 193.423 228.898 192.733 229.203 192.143C229.508 191.55 229.941 191.089 230.501 190.761C231.064 190.43 231.732 190.264 232.504 190.264C233.277 190.264 233.943 190.43 234.503 190.761C235.066 191.089 235.501 191.55 235.806 192.143C236.11 192.733 236.263 193.423 236.263 194.212C236.263 194.994 236.11 195.682 235.806 196.275C235.501 196.865 235.066 197.326 234.503 197.657C233.943 197.985 233.277 198.149 232.504 198.149ZM232.514 196.509C232.866 196.509 233.159 196.409 233.394 196.21C233.63 196.008 233.807 195.733 233.926 195.385C234.049 195.037 234.11 194.641 234.11 194.197C234.11 193.753 234.049 193.357 233.926 193.009C233.807 192.661 233.63 192.385 233.394 192.183C233.159 191.981 232.866 191.88 232.514 191.88C232.16 191.88 231.861 191.981 231.619 192.183C231.381 192.385 231.2 192.661 231.078 193.009C230.958 193.357 230.899 193.753 230.899 194.197C230.899 194.641 230.958 195.037 231.078 195.385C231.2 195.733 231.381 196.008 231.619 196.21C231.861 196.409 232.16 196.509 232.514 196.509ZM238.955 198L236.877 190.364H239.02L240.203 195.494H240.273L241.506 190.364H243.608L244.861 195.464H244.926L246.089 190.364H248.227L246.154 198H243.912L242.599 193.197H242.505L241.192 198H238.955Z" fill="#007BFF"/>
</g>
<path d="M0 174H280V172H0V174Z" fill="black" fill-opacity="0.08" mask="url(#path-8-inside-1_13_12)"/>
</g>
</g>
<path d="M84 244.188L91.6047 209L127.77 216.816" stroke="#BB44FF" stroke-width="12"/>
<path d="M96 216C132.5 279.5 183 288.5 212.5 283" stroke="#BB44FF" stroke-width="12"/>
<defs>
<filter id="filter0_b_13_12" x="-40" y="-40" width="360" height="292" filterUnits="userSpaceOnUse" color-interpolation-filters="sRGB">
<feFlood flood-opacity="0" result="BackgroundImageFix"/>
<feGaussianBlur in="BackgroundImageFix" stdDeviation="20"/>
<feComposite in2="SourceAlpha" operator="in" result="effect1_backgroundBlur_13_12"/>
<feBlend mode="normal" in="SourceGraphic" in2="effect1_backgroundBlur_13_12" result="shape"/>
</filter>
<clipPath id="clip0_13_12">
<rect width="280" height="212" rx="16" fill="white"/>
</clipPath>
<clipPath id="clip1_13_12">
<path d="M0 173H280V212H0V173Z" fill="white"/>
</clipPath>
</defs>
</svg>
